<svg xmlns="http://www.w3.org/2000/svg" viewBox="0 0 100 100">
  <defs>
    <linearGradient id="leafGradient" x1="0%" y1="0%" x2="100%" y2="100%">
      <stop offset="0%" style="stop-color:#3b82f6;stop-opacity:1" />
      <stop offset="100%" style="stop-color:#10b981;stop-opacity:1" />
    </linearGradient>
  </defs>
  
  <!-- Background Circle -->
  <circle cx="50" cy="50" r="48" fill="url(#leafGradient)" />
  
  <!-- Leaf Shape -->
  <path d="M 50 25 Q 65 35, 65 50 Q 65 65, 50 75 Q 35 65, 35 50 Q 35 35, 50 25 Z" 
        fill="white" 
        opacity="0.95" />
  
  <!-- Leaf Vein -->
  <path d="M 50 30 L 50 70" 
        stroke="url(#leafGradient)" 
        stroke-width="2" 
        stroke-linecap="round" />
  
  <!-- Side Veins -->
  <path d="M 50 40 Q 45 42, 42 45" 
        stroke="url(#leafGradient)" 
        stroke-width="1.5" 
        stroke-linecap="round" 
        fill="none" />
  <path d="M 50 40 Q 55 42, 58 45" 
        stroke="url(#leafGradient)" 
        stroke-width="1.5" 
        stroke-linecap="round" 
        fill="none" />
  <path d="M 50 50 Q 45 52, 42 55" 
        stroke="url(#leafGradient)" 
        stroke-width="1.5" 
        stroke-linecap="round" 
        fill="none" />
  <path d="M 50 50 Q 55 52, 58 55" 
        stroke="url(#leafGradient)" 
        stroke-width="1.5" 
        stroke-linecap="round" 
        fill="none" />
  <path d="M 50 60 Q 45 62, 42 65" 
        stroke="url(#leafGradient)" 
        stroke-width="1.5" 
        stroke-linecap="round" 
        fill="none" />
  <path d="M 50 60 Q 55 62, 58 65" 
        stroke="url(#leafGradient)" 
        stroke-width="1.5" 
        stroke-linecap="round" 
        fill="none" />
</svg>
